<svg width="24" height="25" viewBox="0 0 24 25" fill="none" xmlns="http://www.w3.org/2000/svg">
<path d="M2.65129 8.70734C1.14732 7.24774 1.11232 4.84598 2.57301 3.3431C4.03387 1.84005 6.43801 1.80504 7.94222 3.26488L7.94223 3.2649C8.58709 3.89069 9.34244 5.20777 10.0142 6.77259C10.6781 8.31916 11.2281 10.031 11.4914 11.3864L12.4756 11.3721C12.6995 10.0095 13.1994 8.28238 13.8178 6.71716C14.4435 5.13346 15.1599 3.79497 15.7862 3.1506C17.247 1.64755 19.6512 1.61254 21.1554 3.07238C22.6594 4.53198 22.6944 6.93374 21.2337 8.43663L21.5922 8.78511L21.2337 8.43663C20.596 9.09279 19.2623 9.85184 17.678 10.5232C16.112 11.1867 14.3778 11.7329 12.9991 11.9929L12.5918 12.0697V12.4842V12.4849V12.9119L13.0135 12.9787C14.3993 13.1984 16.1489 13.6936 17.7336 14.3111C19.3369 14.9357 20.6921 15.6554 21.3487 16.2927C22.8527 17.7523 22.8877 20.154 21.427 21.6569C19.9661 23.1599 17.562 23.195 16.0578 21.7351L16.0578 21.7351C15.4129 21.1093 14.6576 19.7922 13.9858 18.2274C13.3219 16.6808 12.7719 14.969 12.5086 13.6136L11.5244 13.6279C11.3005 14.9905 10.8006 16.7176 10.1822 18.2828C9.55649 19.8665 8.84005 21.205 8.2138 21.8494C6.75295 23.3525 4.34881 23.3875 2.8446 21.9276C1.34064 20.468 1.30564 18.0663 2.76633 16.5634L2.76633 16.5634C3.40405 15.9072 4.73767 15.1482 6.32198 14.4768C7.88797 13.8133 9.62224 13.2671 11.0009 13.0071L10.9866 12.0219C9.60072 11.8019 7.85114 11.3066 6.26641 10.689C4.66313 10.0643 3.30792 9.34459 2.65129 8.70734ZM2.65129 8.70734L2.30307 9.06615M2.65129 8.70734L2.30307 9.06615M2.30307 9.06615C3.57364 10.2992 6.95454 11.6434 9.69273 12.2761L12.2226 10.1052C12.3215 10.4835 12.4058 10.8494 12.473 11.1956L11.9822 11.291L11.4888 11.2099C11.546 10.8619 11.6197 10.4937 11.7074 10.1127C10.9904 7.43167 9.54123 4.11989 8.29044 2.90608C6.5882 1.25405 3.8677 1.29362 2.21446 2.99461C0.561223 4.69561 0.600825 7.41412 2.30307 9.06615Z" fill="#1B1B1B" stroke="#1B1B1B"/>
</svg>
