<svg width="24" height="25" viewBox="0 0 24 25" fill="none" xmlns="http://www.w3.org/2000/svg">
<path d="M22.9994 12.5C22.9994 11.1319 20.9544 9.93146 17.8774 9.24978C18.3281 8.09176 18.3627 7.16296 17.8756 6.67587C17.3885 6.18879 16.4401 6.22401 15.2648 6.68841C14.5855 3.57369 13.3773 1.5 11.9997 1.5C10.6221 1.5 9.40497 3.58862 8.72689 6.72243C7.5116 6.2252 6.53387 6.17148 6.03009 6.67587C5.54063 7.16535 5.57764 8.10191 6.03606 9.26888C3.00678 9.95415 1 11.1444 1 12.5C1 13.8556 3.03902 15.065 6.10948 15.7478C5.58301 16.9984 5.51556 18.0072 6.03009 18.5217C6.53984 19.0315 7.53368 18.97 8.76748 18.4578C9.45213 21.4908 10.6435 23.5 11.9997 23.5C13.3559 23.5 14.5377 21.5063 15.2242 18.4937C16.4186 18.9736 17.3778 19.0195 17.8756 18.5217C18.3877 18.0096 18.3233 17.0091 17.8046 15.7669C20.9228 15.0882 23 13.8789 23 12.5H22.9994Z" fill="#1B1B1B"/>
</svg>
