<svg width="42" height="42" viewBox="0 0 42 42" fill="none" xmlns="http://www.w3.org/2000/svg">
<path d="M20.999 1V4.0769V1Z" fill="#FDFDFD"/>
<path d="M20.999 1V4.0769" stroke="black" stroke-width="2" stroke-linecap="round" stroke-linejoin="round"/>
<path d="M30.2305 4.07653L31.7689 2.53809L30.2305 4.07653Z" fill="#FDFDFD"/>
<path d="M30.2305 4.07653L31.7689 2.53809" stroke="black" stroke-width="2" stroke-linecap="round" stroke-linejoin="round"/>
<path d="M11.7679 4.07653L10.2295 2.53809L11.7679 4.07653Z" fill="#FDFDFD"/>
<path d="M11.7679 4.07653L10.2295 2.53809" stroke="black" stroke-width="2" stroke-linecap="round" stroke-linejoin="round"/>
<path d="M41.0001 40.9998H33.7784C27.4129 40.9998 22.0977 36.146 21.5214 29.8065L21.1673 25.9105C21.0655 24.791 21.6186 23.7133 22.5875 23.1434C24.3442 22.11 26.5911 23.1595 26.9262 25.1699L27.7696 30.2307" fill="#FDFDFD"/>
<path d="M41.0001 40.9998H33.7784C27.4129 40.9998 22.0977 36.146 21.5214 29.8065L21.1673 25.9105C21.0655 24.791 21.6186 23.7133 22.5875 23.1434C24.3442 22.11 26.5911 23.1595 26.9262 25.1699L27.7696 30.2307" stroke="black" stroke-width="2" stroke-linecap="round" stroke-linejoin="round"/>
<path d="M40.9989 30.2197H36.0005C34.4584 30.2197 33.1544 29.078 32.9507 27.5494L31.0163 13.0403C30.6643 10.4002 27.601 9.11461 25.4703 10.7127C24.5927 11.3709 24.0762 12.4039 24.0762 13.501V22.5274" fill="#FDFDFD"/>
<path d="M40.9989 30.2197H36.0005C34.4584 30.2197 33.1544 29.078 32.9507 27.5494L31.0163 13.0403C30.6643 10.4002 27.601 9.11461 25.4703 10.7127C24.5927 11.3709 24.0762 12.4039 24.0762 13.501V22.5274" stroke="black" stroke-width="2" stroke-linecap="round" stroke-linejoin="round"/>
<path d="M1 40.9998H8.22181C14.5872 40.9998 19.9024 36.146 20.4787 29.8065L20.8328 25.9105C20.9346 24.791 20.3815 23.7133 19.4126 23.1434C17.6559 22.11 15.409 23.1595 15.0739 25.1699L14.2305 30.2307" fill="#FDFDFD"/>
<path d="M1 40.9998H8.22181C14.5872 40.9998 19.9024 36.146 20.4787 29.8065L20.8328 25.9105C20.9346 24.791 20.3815 23.7133 19.4126 23.1434C17.6559 22.11 15.409 23.1595 15.0739 25.1699L14.2305 30.2307" stroke="black" stroke-width="2" stroke-linecap="round" stroke-linejoin="round"/>
<path d="M1 30.2182H5.99829C7.54041 30.2182 8.84435 29.0766 9.04816 27.548L10.9827 13.0389C11.3347 10.3988 14.3978 9.11315 16.5286 10.7112C17.4062 11.3694 17.9227 12.4025 17.9227 13.4995V22.5259" fill="#FDFDFD"/>
<path d="M1 30.2182H5.99829C7.54041 30.2182 8.84435 29.0766 9.04816 27.548L10.9827 13.0389C11.3347 10.3988 14.3978 9.11315 16.5286 10.7112C17.4062 11.3694 17.9227 12.4025 17.9227 13.4995V22.5259" stroke="black" stroke-width="2" stroke-linecap="round" stroke-linejoin="round"/>
</svg>
