<svg width="47" height="32" viewBox="0 0 47 32" fill="none" xmlns="http://www.w3.org/2000/svg">
<path d="M7.4359 17.7009C8.29515 25.7273 15.171 32 23.5009 32C25.7623 32.0025 27.9987 31.5319 30.0637 30.6191C26.3642 29.1164 22.3479 27.1491 18.3344 24.8591C14.4127 22.6236 10.6342 20.1364 7.4359 17.7009Z" fill="#1E293B"/>
<path d="M45.2319 23.5918C44.4516 22.5636 43.3959 21.4282 42.1107 20.2282C41.8654 21.2856 41.5276 22.3198 41.1008 23.3191C43.7374 26.0009 44.1486 27.4409 44.0541 27.7236C43.8705 27.9264 42.4889 28.35 38.7159 27.4027C38.1755 27.267 37.5843 27.1015 36.9423 26.9064C36.5286 26.7803 36.1066 26.6442 35.6764 26.4982C36.3522 25.7306 36.9529 24.9011 37.4702 24.0209C37.4858 23.9945 37.5023 23.9682 37.5179 23.9409C38.9196 21.5246 39.6574 18.7867 39.6577 16C39.6581 15.423 39.6275 14.8465 39.566 14.2727C38.6874 6.25727 31.818 2.52482e-06 23.5009 2.52482e-06C19.972 -0.00196359 16.5401 1.1444 13.7334 3.26273C12.0322 4.54494 10.6026 6.1463 9.52618 7.97545C9.51149 8.00182 9.49497 8.02818 9.47937 8.05455C8.96777 8.93717 8.54263 9.86626 8.20977 10.8291C7.86766 10.5339 7.53749 10.2409 7.21924 9.95C6.72444 9.49545 6.28564 9.07454 5.89549 8.67727C3.18096 5.92636 2.85782 4.53091 2.94319 4.27273C3.14148 4.05182 4.60478 3.67818 8.27954 4.59546C8.94316 3.72994 9.68024 2.92216 10.4827 2.18091C8.75139 1.67091 7.19721 1.33091 5.88814 1.18091C3.06712 0.860911 1.22102 1.41091 0.399411 2.81818C0.101979 3.32546 -0.18352 4.19 0.149715 5.41818C0.642682 7.24182 2.39974 9.45455 4.8866 11.7727C5.67884 12.5118 6.54451 13.2609 7.46802 14.0127C8.14 14.5582 8.84503 15.1091 9.57025 15.6564C10.0543 16.02 10.5485 16.3836 11.0528 16.7473C11.5571 17.1109 12.0681 17.4679 12.5859 17.8182C14.9185 19.4191 17.3834 20.9564 19.8005 22.3355C20.6781 22.8361 21.5545 23.3209 22.4296 23.79C23.3048 24.2591 24.1729 24.7079 25.034 25.1364C27.0444 26.1364 29.0135 27.0382 30.8963 27.8118C31.7036 28.1439 32.4934 28.4518 33.2657 28.7354C34.3572 29.1373 35.4111 29.4909 36.4154 29.7891L36.5163 29.8191C38.8784 30.5154 40.8695 30.8818 42.4356 30.91H42.5954C44.5819 30.91 45.9277 30.33 46.596 29.1827C47.4305 27.7627 46.9706 25.8809 45.2319 23.5918Z" fill="#1E293B"/>
</svg>
