<svg width="17" height="16" viewBox="0 0 17 16" fill="none" xmlns="http://www.w3.org/2000/svg">
<path fill-rule="evenodd" clip-rule="evenodd" d="M14.722 15.1126C13.9593 15.0863 13.3197 14.4467 13.2934 13.684L12.937 3.34716L2.60015 2.99072C1.83747 2.96442 1.19788 2.32483 1.17158 1.56215C1.14528 0.799472 1.74224 0.202519 2.50491 0.228818L14.2227 0.632879C14.9854 0.659178 15.625 1.29877 15.6513 2.06145L16.0553 13.7792C16.0816 14.5419 15.4847 15.1389 14.722 15.1126Z" fill="#FDFDFD"/>
<path fill-rule="evenodd" clip-rule="evenodd" d="M14.4274 1.8567C14.9853 2.41459 15.0155 3.28896 14.4948 3.80966L3.02394 15.2805C2.50324 15.8012 1.62887 15.771 1.07098 15.2132C0.513085 14.6553 0.482934 13.7809 1.00363 13.2602L12.4745 1.78935C12.9952 1.26865 13.8695 1.2988 14.4274 1.8567Z" fill="#FDFDFD"/>
</svg>
